<?xml version="1.0" standalone="no"?>
<!DOCTYPE svg PUBLIC "-//W3C//DTD SVG 20010904//EN"
 "http://www.w3.org/TR/2001/REC-SVG-20010904/DTD/svg10.dtd">
<svg version="1.0" xmlns="http://www.w3.org/2000/svg"
 width="600.000000pt" height="274.000000pt" viewBox="0 0 600.000000 274.000000"
 preserveAspectRatio="xMidYMid meet">
<g transform="translate(0.000000,274.000000) scale(0.100000,-0.100000)"
fill="#000000" stroke="none">
<path d="M1178 2613 c7 -3 16 -2 19 1 4 3 -2 6 -13 5 -11 0 -14 -3 -6 -6z"/>
<path d="M1200 2609 c-23 -7 -110 -24 -185 -36 -16 -3 -32 -8 -35 -12 -10 -15
-49 -31 -74 -31 -14 0 -26 -4 -26 -9 0 -5 -14 -11 -31 -15 -18 -3 -28 -10 -24
-17 4 -6 1 -9 -6 -8 -24 5 -60 -12 -53 -23 5 -8 1 -9 -12 -4 -10 4 -15 4 -11
0 6 -7 -54 -54 -69 -54 -4 0 -14 -7 -23 -15 -37 -35 -130 -105 -140 -105 -6 0
-11 -7 -11 -15 0 -8 -3 -14 -7 -13 -5 2 -10 -1 -12 -7 -2 -5 -16 -15 -31 -22
-16 -6 -31 -21 -35 -34 -4 -12 -20 -35 -36 -50 -16 -16 -29 -31 -29 -34 0 -3
-5 -11 -10 -18 -38 -45 -58 -65 -62 -61 -3 2 -18 -23 -35 -55 -17 -33 -34 -57
-38 -53 -4 4 -4 -3 -1 -15 4 -13 3 -23 -1 -23 -18 0 -60 -230 -54 -290 3 -39
32 -122 51 -150 9 -14 15 -30 13 -36 -2 -6 8 -19 23 -30 15 -10 36 -28 48 -40
12 -11 28 -18 35 -16 8 3 11 0 8 -5 -4 -6 19 -10 56 -10 58 0 88 10 123 42 6
5 21 16 32 24 12 8 19 18 16 23 -3 4 0 8 5 8 36 0 -15 69 -50 70 -26 0 -41 25
-34 57 5 21 4 24 -4 13 -8 -12 -11 -6 -11 26 0 43 11 83 40 149 9 22 21 50 24
63 4 12 12 22 18 22 5 0 8 7 4 15 -3 8 -2 15 3 15 4 0 16 15 26 34 11 19 23
32 28 29 6 -3 7 -1 3 6 -4 6 0 14 8 17 9 3 16 12 16 20 0 8 8 14 18 15 9 0 12
3 5 5 -8 4 -5 13 9 29 12 14 26 22 31 18 6 -3 7 -1 3 5 -4 7 -3 12 2 12 16 0
52 37 44 45 -4 5 1 5 10 2 12 -4 15 -2 11 9 -4 10 0 12 13 7 11 -4 15 -3 11 4
-4 6 1 17 10 24 14 12 16 12 8 0 -5 -10 -4 -12 3 -7 7 4 12 13 12 20 0 7 20
23 45 36 25 13 45 26 45 30 0 7 22 16 44 18 5 0 12 4 15 9 12 17 94 54 108 49
8 -3 11 -1 8 4 -3 6 3 10 14 10 12 0 21 5 21 11 0 6 9 8 21 4 15 -5 19 -4 15
4 -5 7 2 11 16 11 13 0 29 5 35 11 5 5 21 11 34 13 14 1 31 6 39 11 7 4 59 9
114 11 75 2 107 -1 124 -12 12 -8 22 -12 22 -9 0 4 7 -1 16 -9 16 -16 36 -154
24 -161 -4 -2 -7 -19 -8 -37 0 -18 -6 -34 -11 -36 -6 -2 -11 -10 -11 -18 0 -9
-5 -25 -12 -37 -7 -12 -13 -28 -14 -35 -1 -7 -10 -25 -20 -40 -10 -15 -17 -30
-16 -34 1 -5 -2 -8 -8 -8 -5 0 -10 -5 -10 -11 0 -6 -9 -22 -20 -36 -11 -14
-20 -22 -20 -17 0 13 -29 -30 -30 -43 0 -7 -11 -25 -25 -40 -14 -15 -39 -44
-56 -63 -18 -19 -28 -29 -24 -21 5 9 4 12 -3 7 -7 -4 -12 -14 -12 -21 0 -9 -6
-12 -17 -8 -11 4 -14 3 -9 -5 8 -13 -70 -66 -84 -57 -17 10 -11 23 28 67 20
24 28 36 18 28 -11 -8 -17 -10 -14 -5 30 52 48 114 52 172 4 71 -11 173 -25
173 -5 0 -9 6 -9 13 0 20 -64 57 -95 55 -34 -3 -83 -50 -90 -86 -18 -86 -41
-163 -61 -208 -13 -28 -24 -55 -24 -59 0 -4 -11 -23 -25 -41 -14 -18 -25 -38
-25 -44 0 -6 -4 -8 -10 -5 -5 3 -7 0 -5 -7 3 -8 -9 -29 -27 -48 -18 -18 -26
-30 -18 -26 8 4 5 -1 -7 -10 -13 -9 -23 -23 -23 -30 0 -8 -4 -14 -10 -14 -5 0
-10 -7 -10 -16 0 -8 -4 -12 -10 -9 -5 3 -7 0 -4 -8 3 -8 -2 -17 -11 -21 -9 -3
-14 -10 -10 -15 3 -5 0 -13 -6 -16 -11 -7 -71 -129 -75 -154 -2 -8 -8 -17 -15
-22 -7 -4 -14 -27 -16 -51 -2 -23 -6 -70 -9 -103 -4 -38 -1 -77 7 -105 7 -25
13 -52 14 -60 0 -21 63 -80 102 -97 18 -7 33 -10 33 -6 0 5 5 1 10 -7 7 -12
10 -12 10 -1 0 7 6 11 15 7 8 -3 15 -2 15 2 0 5 9 18 20 30 25 27 41 108 36
176 -5 62 3 108 17 99 6 -4 8 2 5 15 -4 12 0 26 8 33 8 7 13 18 10 26 -3 7 -2
13 3 13 4 0 16 20 26 45 13 29 22 41 27 32 5 -8 8 -7 8 6 0 9 5 17 10 17 6 0
10 -4 10 -10 0 -5 8 -10 18 -10 15 0 15 2 2 11 -11 8 -8 9 13 4 16 -3 26 -2
23 3 -3 5 18 12 47 16 52 6 121 26 133 39 12 12 26 8 18 -5 -5 -7 -3 -8 5 -4
7 5 10 11 7 14 -6 5 60 41 77 42 5 0 20 9 34 19 13 11 30 18 38 15 7 -3 19 4
25 16 6 12 25 26 41 32 16 6 26 15 22 21 -4 6 0 8 10 4 10 -3 17 -2 17 4 0 15
53 69 67 69 7 0 12 4 10 8 -4 13 52 74 62 67 5 -3 13 0 17 6 4 8 3 9 -4 5 -22
-14 -12 20 13 44 13 12 23 27 22 33 -1 5 4 11 11 13 7 1 8 0 2 -3 -6 -3 -5
-15 4 -32 14 -26 13 -28 -22 -57 -20 -16 -43 -27 -51 -26 -7 2 -10 -1 -7 -6 3
-5 -2 -18 -10 -28 -14 -17 -15 -17 -10 -1 4 11 2 16 -5 11 -6 -3 -9 -15 -6
-25 3 -11 1 -17 -3 -14 -4 3 -13 -10 -19 -28 -10 -26 -14 -29 -22 -17 -8 12
-9 10 -4 -7 4 -13 2 -23 -4 -23 -6 0 -7 -7 -4 -17 5 -12 3 -14 -7 -8 -10 6
-12 4 -7 -8 3 -9 2 -19 -3 -22 -4 -3 -11 1 -13 7 -3 8 -6 4 -7 -7 -4 -41 -7
-51 -25 -92 -10 -24 -22 -43 -27 -43 -5 0 -7 -4 -4 -9 3 -5 0 -24 -8 -43 -8
-18 -19 -61 -26 -96 -13 -74 -20 -233 -10 -227 7 5 24 -51 21 -68 -1 -5 3 -6
9 -2 5 3 10 -1 10 -9 0 -8 9 -18 20 -21 11 -3 20 -12 20 -18 0 -12 -135 -73
-157 -71 -7 1 -12 -1 -11 -5 1 -3 -24 -32 -55 -64 -31 -32 -60 -69 -63 -82 -3
-14 -9 -23 -13 -20 -4 2 -8 -1 -9 -8 0 -7 -3 -34 -6 -61 -6 -52 8 -126 24
-126 6 0 10 -9 10 -20 0 -24 55 -80 101 -103 19 -9 27 -17 19 -18 -17 -1 16
-11 113 -32 75 -17 158 -10 250 20 29 10 55 16 60 15 4 -1 6 4 5 10 -2 7 4 13
12 13 8 0 18 4 21 9 10 13 42 -2 33 -15 -4 -7 -3 -9 4 -5 6 3 17 -1 26 -9 20
-20 109 -44 173 -46 61 -3 172 11 179 22 3 5 14 9 24 9 10 0 25 6 32 13 15 14
68 41 83 42 6 0 18 7 28 15 10 8 20 14 23 12 3 -2 12 5 19 15 7 10 17 18 22
18 4 1 35 27 67 58 33 31 62 57 66 57 3 0 21 20 40 45 18 24 37 42 42 39 4 -3
8 0 8 5 0 6 9 20 21 32 16 16 27 19 47 14 25 -7 77 -12 160 -14 18 -1 31 -5
28 -10 -4 -5 10 -5 31 0 23 5 42 4 49 -2 7 -5 24 -7 38 -3 15 3 32 1 40 -5 7
-6 24 -11 37 -11 33 1 120 -8 144 -14 11 -2 26 -5 33 -5 7 -1 11 -5 8 -10 -3
-5 4 -11 17 -15 32 -8 45 -6 22 4 -17 7 -15 9 11 9 17 1 34 -2 37 -5 3 -4 21
-8 39 -10 57 -5 110 -14 121 -21 23 -14 90 -15 98 -1 14 22 11 26 -52 61 -38
22 -56 37 -48 40 8 4 2 4 -13 1 -17 -4 -28 -2 -28 5 0 6 -3 10 -7 10 -21 -3
-33 2 -27 13 4 6 3 8 -3 5 -11 -7 -63 14 -63 26 0 4 -8 7 -19 7 -10 0 -45 12
-77 26 -33 14 -68 29 -79 34 -21 9 -138 43 -143 41 -1 -1 -18 6 -38 14 -20 8
-40 12 -45 9 -5 -3 -9 4 -9 15 0 12 5 21 11 21 5 0 7 -5 4 -10 -10 -17 9 -11
27 8 10 9 27 26 38 37 20 19 21 26 15 134 -6 91 -5 115 6 122 9 5 10 9 2 9 -6
0 -9 9 -6 20 3 11 9 20 13 20 5 0 11 14 15 31 4 17 12 40 19 52 36 65 59 96
67 91 5 -3 9 -2 8 3 -3 18 2 34 9 29 4 -2 14 5 22 17 12 21 12 21 -6 8 -10 -8
-2 2 19 21 34 31 51 58 27 43 -6 -3 -7 1 -4 9 7 17 20 21 27 9 2 -5 2 -2 1 5
-2 7 8 34 23 60 26 46 32 97 13 116 -10 10 40 46 65 46 8 0 15 7 15 15 0 9 7
18 15 21 15 6 30 41 27 62 -2 6 2 12 9 12 7 0 8 7 4 18 -8 20 -13 41 -14 60
-1 7 -5 10 -11 7 -5 -3 -10 -1 -10 6 0 7 -3 9 -7 6 -3 -4 -17 0 -31 9 -36 24
-103 21 -140 -5 -30 -21 -80 -81 -68 -81 4 0 0 -15 -8 -34 -14 -35 -12 -70 7
-93 7 -9 5 -13 -5 -13 -9 0 -28 -10 -44 -22 -15 -13 -24 -16 -19 -9 5 10 4 12
-3 7 -7 -4 -12 -12 -12 -18 0 -6 -13 -23 -29 -39 -16 -15 -32 -36 -35 -47 -8
-24 -44 -58 -52 -49 -4 4 -1 13 6 22 7 8 9 15 6 15 -4 0 -2 10 5 21 8 15 8 19
0 15 -6 -4 -11 0 -11 9 0 10 -5 13 -12 9 -8 -5 -9 -2 -5 10 4 10 3 15 -3 11
-10 -6 -63 29 -55 36 2 2 -18 2 -43 0 -43 -3 -93 -27 -117 -58 -5 -6 -23 -13
-40 -15 -29 -3 -29 -2 -26 40 3 55 -7 104 -22 95 -6 -4 -8 -1 -5 9 4 8 1 15
-5 16 -69 11 -100 13 -115 6 -9 -4 -19 -7 -22 -6 -3 0 -16 -14 -28 -33 -16
-23 -24 -49 -25 -87 -2 -43 -5 -52 -14 -42 -7 7 -13 20 -13 28 0 9 -3 15 -7
15 -21 -3 -33 3 -33 17 0 11 -6 14 -20 9 -12 -4 -20 -2 -20 5 0 25 -116 -24
-147 -64 -19 -24 -19 -24 -44 -5 -23 19 -24 20 -5 34 11 8 14 15 7 15 -7 0
-11 8 -10 18 5 34 -32 90 -64 96 -49 10 -81 7 -105 -10 -20 -14 -22 -14 -22 1
0 10 5 13 12 9 7 -5 9 -2 6 7 -3 8 0 26 7 39 43 80 -96 164 -191 115 -15 -8
-30 -13 -31 -11 -7 7 9 36 17 31 5 -3 6 4 3 15 -3 11 -1 20 5 20 6 0 8 10 4
22 -4 16 -2 19 8 13 8 -5 11 -4 7 2 -4 5 -1 38 5 72 14 75 -4 207 -31 228 -9
7 -13 13 -9 13 19 1 -71 120 -90 120 -4 0 -19 10 -32 22 -14 13 -45 33 -70 46
-25 12 -35 20 -22 18 12 -2 20 0 16 5 -3 5 -15 9 -27 9 -12 0 -51 9 -87 21
-69 22 -271 33 -320 18z m322 -53 c155 -52 256 -134 300 -245 74 -187 -33
-474 -259 -692 -147 -142 -368 -244 -545 -251 -44 -2 -57 -16 -100 -109 -49
-105 -59 -145 -52 -218 14 -152 -55 -219 -139 -135 -54 54 -71 108 -64 202 10
137 68 275 189 442 110 154 190 321 204 428 4 29 15 64 26 77 25 33 71 33 102
2 24 -24 46 -101 46 -157 0 -89 -46 -204 -121 -306 -22 -31 -38 -58 -35 -61 9
-9 100 32 160 72 116 77 270 275 337 433 29 68 33 88 33 172 1 80 -2 99 -19
122 -32 42 -79 60 -162 59 -93 0 -177 -21 -323 -79 -286 -113 -497 -302 -611
-546 -31 -68 -59 -165 -59 -208 0 -66 48 -128 97 -128 31 0 29 -10 -10 -41
-57 -46 -97 -62 -143 -56 -142 16 -230 227 -179 431 40 156 111 265 284 436
201 198 440 329 681 375 111 21 267 13 362 -19z m466 -646 c26 -16 32 -26 32
-52 0 -45 -33 -95 -74 -114 -26 -13 -48 -15 -100 -9 l-67 7 7 46 c8 59 26 94
60 121 34 27 98 28 142 1z m1472 -5 c50 -45 -2 -156 -80 -172 -8 -2 -43 0 -78
3 l-62 6 6 37 c11 69 25 100 57 127 27 23 38 26 84 22 32 -3 61 -12 73 -23z
m-1301 -157 c29 -31 33 -50 21 -99 -25 -97 -26 -89 11 -89 27 0 46 11 89 50
76 69 123 74 183 22 61 -54 -44 -193 -203 -269 -30 -14 -58 -31 -62 -37 -13
-20 -9 -60 16 -138 34 -107 41 -150 40 -248 l-1 -85 163 0 163 0 12 85 c9 67
9 111 -1 210 -11 108 -11 130 2 160 21 49 86 134 120 156 32 22 37 38 8 29
-10 -3 -28 -2 -38 4 -16 8 -20 4 -29 -32 -14 -51 -67 -133 -96 -149 -37 -19
-90 -28 -139 -21 -54 6 -60 14 -23 31 39 18 115 92 136 134 17 33 19 51 13
131 -5 74 -3 99 9 123 31 61 113 72 151 21 18 -25 19 -32 8 -80 -6 -28 -14
-62 -18 -74 -6 -21 -3 -23 30 -23 31 0 46 9 91 50 80 76 143 78 191 5 13 -20
14 -31 5 -57 -20 -61 -146 -168 -241 -205 -59 -23 -59 -37 -5 -238 22 -83 26
-115 22 -191 l-4 -90 36 -2 c141 -8 438 -100 691 -215 217 -97 218 -102 20
-59 -188 42 -523 88 -705 98 l-110 6 -43 -55 c-50 -63 -101 -113 -187 -180
-33 -26 -65 -52 -71 -56 -6 -5 -49 -27 -95 -49 -164 -78 -324 -77 -440 4 l-36
25 -34 -20 c-98 -57 -262 -80 -366 -52 -110 30 -193 126 -201 232 -11 150 127
276 358 326 65 14 128 18 267 18 l182 0 6 46 c4 26 5 129 3 230 l-3 184 39 58
c21 32 55 70 75 84 56 41 56 42 20 40 -19 0 -40 1 -48 4 -10 3 -17 -8 -23 -34
-4 -21 -24 -63 -44 -92 -29 -45 -43 -57 -85 -70 -73 -25 -200 -3 -131 22 23 9
83 53 104 78 42 48 51 87 52 203 1 112 1 114 29 138 36 31 89 32 116 2z m-166
-65 c-3 -27 -8 -52 -12 -56 -5 -4 -3 -31 2 -58 8 -42 7 -56 -8 -87 -10 -20
-19 -40 -19 -45 -1 -10 -89 -87 -101 -88 -5 -1 -13 -1 -16 -1 -14 2 -16 -38
-4 -55 11 -15 28 -18 89 -18 41 0 68 -3 58 -7 -16 -6 -16 -7 1 -7 10 -1 20 6
23 14 10 24 24 7 24 -28 0 -25 -3 -29 -11 -17 -8 12 -9 11 -5 -5 18 -71 27
-189 21 -264 -4 -46 -10 -80 -14 -75 -8 12 -31 16 -31 6 0 -4 -57 -7 -127 -7
-71 0 -150 -3 -176 -7 -44 -7 -47 -6 -32 8 12 13 15 35 13 114 -2 54 -6 93
-10 86 -13 -19 -9 3 14 77 25 85 44 124 50 105 3 -7 8 4 12 25 4 20 11 37 16
37 5 0 12 10 16 22 10 32 29 49 41 37 7 -7 9 -2 5 17 -4 22 -2 26 10 21 9 -3
15 0 15 6 -1 32 4 48 13 42 6 -3 10 1 10 9 0 9 5 16 11 16 5 0 7 5 4 10 -3 6
-1 10 5 10 6 0 9 4 6 8 -3 5 4 19 15 30 11 12 17 22 14 22 -3 0 1 10 9 21 14
20 14 28 -1 67 -13 35 -12 43 6 37 10 -3 24 1 31 10 25 30 37 17 33 -32z
m-112 -4 c16 -11 29 -25 29 -30 0 -22 -43 -98 -100 -179 -162 -229 -186 -290
-175 -452 8 -125 3 -138 -54 -138 -59 0 -94 47 -105 141 -13 108 24 254 114
446 55 117 89 165 144 205 48 35 105 38 147 7z m1463 0 c42 -33 27 -72 -98
-245 -135 -189 -162 -263 -151 -423 7 -114 5 -122 -42 -133 -31 -8 -82 27 -99
67 -19 47 -18 189 3 273 33 136 130 344 194 416 57 66 142 85 193 45z m-1126
-77 c6 -18 -15 -14 -22 4 -4 10 -1 14 6 12 6 -2 14 -10 16 -16z m552 -2 c-8
-5 -22 -9 -30 -9 -10 0 -8 3 5 9 27 12 43 12 25 0z m-1610 -10 c0 -5 -2 -10
-4 -10 -3 0 -8 5 -11 10 -3 6 -1 10 4 10 6 0 11 -4 11 -10z m1357 -93 c-8 -13
-17 -32 -19 -42 -5 -18 -6 -18 -17 5 l-11 25 5 -28 c4 -21 3 -27 -6 -21 -8 5
-10 2 -6 -8 8 -23 -4 -31 -18 -11 -9 12 -16 13 -30 6 -12 -7 -14 -13 -6 -17 6
-4 11 -2 11 3 0 6 5 11 11 11 6 0 9 -10 7 -22 -2 -16 -10 -23 -25 -22 -12 0
-20 -3 -17 -8 3 -4 0 -8 -6 -8 -6 0 -8 -4 -5 -10 3 -5 0 -10 -8 -10 -24 0 -28
-29 -8 -51 12 -13 24 -17 36 -13 13 5 16 4 11 -5 -9 -14 74 -7 104 9 29 15 35
12 37 -17 13 -245 14 -341 5 -347 -6 -4 -9 -13 -6 -21 5 -11 -5 -14 -45 -13
-28 1 -51 5 -51 9 0 4 -24 7 -54 6 -30 -1 -52 -5 -49 -9 5 -9 -23 -10 -52 -2
-17 4 -20 12 -17 47 2 23 -4 74 -13 112 -9 39 -20 95 -26 125 -5 30 -15 60
-21 68 -6 7 -12 27 -13 43 -2 26 2 31 26 36 16 3 26 9 23 14 -3 5 7 14 21 19
34 13 38 13 29 -2 -4 -7 -3 -8 5 -4 6 4 9 11 6 15 -2 5 17 23 43 42 26 18 59
47 74 64 16 16 35 37 43 46 8 9 15 21 15 28 0 8 5 7 16 -4 14 -14 14 -18 1
-38z m516 -7 c-9 -22 -20 -37 -26 -33 -6 3 -7 1 -3 -5 4 -7 -2 -29 -13 -50
-29 -53 -51 -111 -51 -134 0 -10 -4 -17 -9 -14 -5 4 -9 -14 -9 -39 0 -24 -3
-49 -6 -54 -12 -18 -8 -168 5 -212 13 -46 52 -88 81 -89 10 0 16 -7 15 -20 -1
-14 -6 -18 -18 -15 -33 11 -65 17 -117 24 -30 4 -57 13 -61 20 -5 7 -9 52 -10
99 -2 93 -9 151 -21 167 -23 31 -48 181 -28 169 4 -3 8 1 8 8 0 12 63 48 85
48 4 0 16 9 26 21 11 13 23 18 31 13 7 -4 10 -4 6 1 -8 9 15 35 31 35 6 0 11
7 11 16 0 8 5 12 10 9 6 -3 10 1 10 10 0 11 5 15 15 11 10 -3 15 1 15 11 0 12
24 40 37 43 1 0 -6 -18 -14 -40z m-206 -856 c-3 -3 -12 -4 -19 -1 -8 3 -5 6 6
6 11 1 17 -2 13 -5z"/>
<path d="M850 1481 c0 -6 4 -13 10 -16 6 -3 7 1 4 9 -7 18 -14 21 -14 7z"/>
<path d="M1931 1864 c0 -11 3 -14 6 -6 3 7 2 16 -1 19 -3 4 -6 -2 -5 -13z"/>
<path d="M2586 1713 c-6 -14 -5 -15 5 -6 7 7 10 15 7 18 -3 3 -9 -2 -12 -12z"/>
<path d="M2681 1694 c0 -11 3 -14 6 -6 3 7 2 16 -1 19 -3 4 -6 -2 -5 -13z"/>
<path d="M2698 1523 c7 -3 16 -2 19 1 4 3 -2 6 -13 5 -11 0 -14 -3 -6 -6z"/>
<path d="M2596 1427 c3 -10 9 -15 12 -12 3 3 0 11 -7 18 -10 9 -11 8 -5 -6z"/>
<path d="M2698 1421 c-16 -18 -15 -20 1 -18 9 0 17 9 17 19 0 10 -1 18 -1 18
0 0 -8 -9 -17 -19z"/>
<path d="M2006 1357 c3 -10 9 -15 12 -12 3 3 0 11 -7 18 -10 9 -11 8 -5 -6z"/>
<path d="M2475 1349 c-4 -6 -4 -13 -1 -16 3 -4 6 -1 6 5 0 6 8 13 18 15 15 4
15 5 0 6 -9 0 -20 -4 -23 -10z"/>
<path d="M2631 1244 c0 -11 3 -14 6 -6 3 7 2 16 -1 19 -3 4 -6 -2 -5 -13z"/>
<path d="M2620 1091 c0 -17 4 -32 8 -35 4 -2 6 11 4 30 -5 42 -12 45 -12 5z"/>
<path d="M2908 783 c7 -3 16 -2 19 1 4 3 -2 6 -13 5 -11 0 -14 -3 -6 -6z"/>
<path d="M2955 770 c-3 -6 1 -7 9 -4 18 7 21 14 7 14 -6 0 -13 -4 -16 -10z"/>
<path d="M1349 693 c-13 -17 -13 -17 6 -3 11 8 22 16 24 17 2 2 0 3 -6 3 -6 0
-17 -8 -24 -17z"/>
<path d="M2380 670 c-136 -9 -193 -21 -263 -57 -86 -43 -121 -96 -93 -138 15
-23 23 -25 85 -25 79 0 156 25 239 77 81 52 191 159 155 151 -5 0 -60 -4 -123
-8z m47 -40 c-1 -11 -4 -20 -7 -20 -3 0 -17 -11 -31 -24 -30 -27 -110 -73
-136 -78 -10 -2 -23 -8 -30 -14 -6 -6 -38 -14 -71 -18 -63 -7 -112 6 -112 31
0 21 51 73 72 73 10 0 18 5 18 11 0 5 5 7 10 4 6 -3 10 -1 10 4 0 6 9 11 20
11 10 0 29 5 42 10 22 10 106 23 180 27 31 2 36 -1 35 -17z"/>
<path d="M1730 660 c-101 -17 -174 -51 -222 -104 -83 -89 31 -138 195 -84 60
19 67 24 67 47 0 43 21 105 43 129 l20 22 -29 -1 c-16 -1 -49 -5 -74 -9z m25
-33 c8 -9 10 -19 4 -29 -5 -9 -11 -31 -13 -50 -3 -27 -8 -34 -30 -36 -14 -2
-26 -7 -26 -12 0 -5 -21 -11 -47 -15 -27 -3 -63 -8 -81 -11 -23 -4 -32 -2 -27
5 6 10 -8 16 -28 12 -5 -1 -6 3 -2 9 3 6 10 8 14 6 4 -3 8 1 8 9 0 8 -4 12 -9
9 -4 -3 -8 -1 -8 5 0 12 115 83 132 80 20 -3 78 13 84 22 7 12 13 11 29 -4z"/>
<path d="M2068 633 c7 -3 16 -2 19 1 4 3 -2 6 -13 5 -11 0 -14 -3 -6 -6z"/>
<path d="M2453 575 c-3 -9 -3 -19 1 -22 3 -4 6 1 6 11 0 10 5 14 12 10 7 -4 8
-3 4 4 -10 16 -15 15 -23 -3z"/>
<path d="M2420 546 c0 -2 7 -7 16 -10 8 -3 12 -2 9 4 -6 10 -25 14 -25 6z"/>
<path d="M2405 510 c-3 -6 1 -7 9 -4 18 7 21 14 7 14 -6 0 -13 -4 -16 -10z"/>
<path d="M1785 480 c-3 -5 -1 -10 4 -10 6 0 11 5 11 10 0 6 -2 10 -4 10 -3 0
-8 -4 -11 -10z"/>
<path d="M2464 479 c-3 -6 -2 -15 4 -21 6 -6 12 -6 17 3 6 8 4 10 -5 4 -10 -6
-12 -4 -7 8 7 19 2 23 -9 6z"/>
<path d="M2315 470 c-3 -6 1 -7 9 -4 18 7 21 14 7 14 -6 0 -13 -4 -16 -10z"/>
<path d="M2415 438 l-20 -21 22 12 c23 12 40 31 26 30 -4 0 -17 -10 -28 -21z"/>
<path d="M1971 1524 c0 -11 3 -14 6 -6 3 7 2 16 -1 19 -3 4 -6 -2 -5 -13z"/>
<path d="M2355 1370 c-3 -5 -1 -10 4 -10 6 0 11 5 11 10 0 6 -2 10 -4 10 -3 0
-8 -4 -11 -10z"/>
<path d="M2970 1409 c0 -5 5 -7 10 -4 6 3 10 8 10 11 0 2 -4 4 -10 4 -5 0 -10
-5 -10 -11z"/>
<path d="M4491 2350 c-12 -11 -27 -17 -32 -14 -5 3 -9 1 -9 -5 0 -6 -6 -8 -13
-6 -7 3 -19 -3 -26 -14 -11 -15 -19 -17 -38 -10 -50 19 -107 -36 -84 -79 14
-26 5 -32 -41 -32 -22 0 -38 -5 -38 -12 0 -6 -3 -9 -6 -5 -11 11 -31 -17 -27
-38 4 -17 3 -18 -7 -5 -9 12 -10 11 -5 -7 4 -16 -1 -26 -23 -42 -16 -11 -33
-17 -37 -13 -5 4 -5 1 -1 -5 4 -8 2 -13 -7 -13 -8 0 -22 -9 -32 -20 -10 -11
-22 -17 -28 -13 -6 3 -7 1 -3 -5 4 -7 1 -12 -6 -12 -8 0 -21 -8 -30 -17 -9
-10 -40 -38 -70 -63 -29 -25 -70 -64 -92 -87 -24 -27 -44 -40 -55 -36 -10 3
-12 2 -4 -4 8 -6 -2 -22 -33 -53 -24 -24 -44 -40 -44 -34 0 5 -4 4 -8 -2 -10
-15 -57 -30 -48 -15 5 7 1 9 -8 5 -9 -3 -14 -10 -11 -14 7 -11 -22 -20 -42
-13 -10 4 -14 2 -9 -5 10 -16 -15 -27 -26 -11 -7 11 -8 9 -4 -5 5 -14 2 -17
-11 -12 -10 4 -14 4 -10 0 11 -12 -30 -35 -50 -28 -15 5 -15 4 -3 -5 13 -9 10
-15 -16 -40 -18 -17 -35 -27 -38 -24 -3 4 -6 0 -6 -9 0 -19 -44 -60 -55 -51
-4 5 -5 2 -1 -4 7 -12 -31 -89 -60 -123 -18 -21 -44 -149 -44 -214 0 -29 8
-77 17 -107 9 -30 16 -57 15 -62 -1 -4 4 -6 10 -5 7 2 12 -3 10 -10 -1 -8 7
-16 18 -19 11 -3 17 -9 14 -14 -3 -5 2 -6 11 -3 10 4 15 2 13 -7 -2 -7 2 -14
7 -14 6 -1 23 -7 38 -13 16 -7 37 -12 47 -12 10 0 22 -5 26 -11 3 -6 15 -9 25
-6 10 3 20 0 21 -5 3 -7 12 -7 27 1 12 7 29 10 36 7 7 -2 44 7 82 21 37 14 76
26 85 26 9 1 16 5 15 10 -1 5 4 12 12 15 9 3 11 0 6 -8 -5 -9 -4 -11 3 -6 7 4
12 15 12 24 0 15 2 15 10 2 8 -12 10 -10 10 8 0 13 4 20 10 17 6 -4 9 -3 8 2
-1 4 6 23 16 42 16 30 17 39 5 73 -7 21 -17 42 -23 45 -15 10 -76 10 -76 1 0
-4 -10 -8 -22 -8 -13 -1 -39 -14 -58 -30 -19 -17 -40 -30 -46 -30 -7 0 -14 -7
-18 -15 -3 -8 -9 -15 -13 -14 -22 4 -44 -2 -38 -10 10 -16 -29 -17 -43 -1 -8
8 -11 9 -7 3 3 -7 1 -13 -5 -13 -8 0 -9 10 -5 29 3 17 2 32 -4 36 -6 3 -11 11
-11 16 0 6 5 7 11 3 8 -4 9 3 4 26 -5 21 -4 30 3 26 5 -3 10 0 9 7 -1 38 6 57
28 78 26 25 34 45 13 33 -7 -4 -1 6 13 22 34 39 59 80 59 98 0 10 6 13 17 9
11 -4 14 -3 9 5 -4 7 -2 12 5 12 7 0 10 3 6 6 -9 10 52 64 66 58 8 -3 20 2 27
11 8 10 9 15 1 15 -6 0 -11 -4 -11 -10 0 -5 -5 -10 -11 -10 -8 0 -8 5 1 15 18
21 40 19 41 -5 1 -11 3 -24 4 -30 1 -5 3 -18 4 -29 0 -10 13 -31 28 -46 25
-24 32 -26 73 -20 25 4 50 7 57 8 6 0 9 6 6 14 -4 9 0 11 13 7 11 -4 16 -3 11
1 -4 5 1 17 10 28 10 11 12 17 6 13 -13 -7 -8 19 8 39 12 16 0 93 -21 130 -10
18 -16 36 -12 41 4 4 2 4 -4 1 -7 -4 -18 1 -25 10 -12 15 -12 16 3 10 13 -4
16 -1 13 14 -2 11 0 17 6 14 5 -4 9 -1 9 5 0 6 5 8 12 4 8 -5 9 -2 5 10 -6 14
-3 17 8 12 9 -3 13 -2 10 4 -6 10 34 55 50 55 6 1 9 7 7 14 -1 7 1 10 6 7 4
-2 14 -1 22 5 13 7 13 9 1 9 -11 0 -9 4 4 14 11 8 24 12 29 9 5 -4 6 -1 2 5
-4 7 -2 12 5 12 7 0 24 11 38 25 78 74 95 86 118 82 13 -2 23 1 23 7 0 7 3 6
8 -2 8 -11 44 -14 144 -10 22 1 34 6 31 11 -4 6 1 8 11 4 17 -7 62 12 98 41 9
8 20 12 25 10 11 -6 43 29 35 38 -4 4 2 4 13 0 11 -4 16 -4 12 0 -4 4 5 16 20
26 16 10 22 18 15 18 -8 0 -5 10 9 29 31 42 30 98 -3 126 -15 13 -24 26 -21
29 7 7 -66 -2 -78 -10 -5 -3 -9 2 -9 10 0 9 -4 16 -10 16 -5 0 -6 7 -3 17 4
11 3 14 -5 9 -7 -4 -12 -1 -12 7 0 32 -64 36 -99 7z m71 -12 c42 -33 23 -97
-25 -84 -18 4 -27 15 -32 36 -11 49 22 75 57 48z m-70 -73 c18 -39 -22 -71
-59 -47 -21 13 -26 58 -8 76 20 20 51 7 67 -29z m-106 0 c23 -35 12 -75 -21
-75 -23 0 -55 32 -55 57 0 16 28 43 45 43 8 0 22 -11 31 -25z m332 -23 c28
-36 5 -90 -65 -152 -97 -85 -229 -120 -334 -89 -38 12 -39 11 -116 -47 -83
-61 -252 -220 -285 -267 l-20 -28 36 -39 c41 -45 53 -96 37 -150 -37 -123
-186 -96 -152 27 15 51 14 53 -12 53 -56 0 -158 -92 -241 -217 -74 -113 -91
-157 -91 -244 0 -81 17 -119 55 -119 9 0 52 22 96 49 138 87 160 96 189 83 48
-22 26 -98 -42 -145 -121 -84 -296 -94 -403 -23 -109 72 -120 264 -24 446 67
127 184 231 309 275 56 19 77 35 167 125 113 112 216 199 320 268 61 40 67 47
62 72 -4 16 -1 31 6 35 6 4 71 8 144 8 l133 2 54 34 c117 74 146 81 177 43z"/>
<path d="M4440 2255 c0 -8 4 -15 10 -15 5 0 7 7 4 15 -4 8 -8 15 -10 15 -2 0
-4 -7 -4 -15z"/>
<path d="M5197 2018 c-15 -5 -24 -14 -21 -20 4 -6 2 -8 -4 -4 -6 3 -30 -12
-54 -34 -24 -22 -49 -40 -57 -40 -7 0 -11 -6 -8 -13 3 -8 0 -14 -6 -14 -40 -3
-112 -23 -115 -32 -2 -6 -8 -9 -13 -6 -12 8 -4 -54 8 -66 13 -13 5 -55 -13
-69 -7 -6 -10 -18 -7 -26 3 -8 -1 -14 -8 -14 -8 0 -24 -22 -37 -48 -12 -26
-20 -39 -17 -29 3 10 1 15 -5 12 -6 -3 -10 -15 -10 -26 0 -11 -4 -18 -9 -15
-5 3 -7 14 -5 24 6 23 -32 83 -57 89 -16 5 -18 8 -7 14 8 5 -9 9 -43 9 -38 0
-61 -5 -69 -15 -7 -8 -16 -12 -22 -9 -5 3 -15 1 -22 -5 -9 -8 -24 -5 -54 9
-44 21 -120 26 -152 10 -11 -5 -29 -14 -40 -20 -25 -13 -33 -13 -25 0 3 6 -1
7 -9 4 -9 -3 -14 -11 -13 -17 1 -6 -9 -13 -23 -15 -14 -2 -33 -13 -44 -24 -10
-11 -32 -24 -47 -30 -16 -5 -27 -14 -24 -18 3 -5 -3 -11 -14 -15 -11 -3 -22
-12 -25 -20 -3 -8 -16 -15 -28 -15 -17 0 -19 -3 -10 -9 11 -6 6 -14 -18 -31
-17 -12 -29 -24 -26 -27 2 -3 -8 -18 -24 -33 -16 -15 -35 -46 -42 -69 -8 -23
-18 -38 -22 -34 -4 4 -4 0 0 -10 3 -9 2 -23 -3 -30 -12 -16 -30 -108 -32 -170
-2 -55 28 -169 43 -160 5 4 7 -1 3 -11 -4 -9 -3 -15 2 -12 5 3 11 0 14 -7 7
-20 107 -40 158 -33 24 3 52 7 62 8 9 1 17 6 17 11 0 5 7 6 16 3 8 -3 12 -2 9
4 -3 6 2 10 11 10 10 0 15 3 11 6 -3 3 0 12 6 19 9 10 17 10 32 2 19 -10 19
-9 5 9 -14 19 -14 19 8 0 12 -11 22 -23 22 -28 0 -5 7 -16 15 -24 8 -9 15 -13
15 -10 0 3 9 -2 19 -11 11 -9 18 -19 16 -23 -2 -4 26 -7 62 -8 37 -1 63 1 60
5 -4 3 1 12 12 19 23 16 21 76 -3 103 -14 15 -16 32 -13 77 3 32 10 60 16 62
6 2 11 13 11 24 0 11 9 32 20 48 11 15 17 30 13 34 -3 3 -1 6 5 6 7 0 12 7 12
15 0 8 9 23 21 34 12 11 19 24 16 29 -4 4 7 23 23 40 16 18 26 32 23 32 -3 0
5 9 18 20 13 10 20 19 16 20 -5 0 -2 6 5 13 7 8 24 28 37 45 13 18 29 32 35
32 6 0 5 -4 -3 -9 -7 -5 -11 -13 -8 -18 4 -6 -1 -19 -9 -29 -14 -17 -15 -17
-10 -1 3 11 2 16 -4 12 -6 -3 -7 -18 -4 -33 4 -15 3 -24 -1 -19 -10 9 -36 -63
-28 -76 4 -6 1 -7 -7 -2 -10 6 -12 4 -7 -8 3 -8 -1 -21 -9 -28 -9 -7 -12 -20
-8 -32 4 -14 3 -17 -6 -12 -9 5 -11 4 -6 -3 4 -6 2 -20 -4 -31 -5 -11 -12 -44
-15 -73 -3 -29 -7 -67 -9 -84 -7 -55 20 -144 55 -181 36 -36 98 -60 110 -41 4
6 11 8 17 4 6 -3 16 7 24 24 7 16 17 30 22 30 5 0 6 21 2 48 -13 88 -10 166 9
215 9 26 21 47 26 47 5 0 5 7 2 17 -5 12 -3 14 7 8 9 -6 11 -4 5 5 -5 8 -2 17
7 24 8 6 16 16 17 21 8 30 31 75 40 75 5 0 14 14 20 30 13 39 37 65 44 47 3
-6 6 -2 6 11 1 12 5 22 11 22 5 0 7 7 4 15 -4 11 -2 13 9 9 8 -3 18 0 23 7 4
8 3 10 -4 5 -23 -14 -11 13 14 33 15 12 23 21 18 22 -5 0 1 4 14 9 12 5 22 18
22 28 0 21 23 46 33 36 4 -4 14 7 24 24 17 30 42 37 60 17 5 -4 3 -5 -4 -1 -7
3 -14 -2 -18 -13 -3 -11 -15 -23 -26 -26 -10 -4 -19 -13 -19 -21 0 -8 -4 -12
-10 -9 -6 3 -7 -1 -4 -10 5 -11 0 -18 -14 -22 -18 -4 -20 -8 -11 -25 8 -15 8
-19 0 -14 -6 4 -11 0 -11 -9 0 -9 -5 -13 -10 -10 -6 4 -9 1 -8 -7 2 -8 -5 -12
-17 -11 -11 1 -14 0 -8 -3 8 -4 -7 -26 -42 -61 -30 -30 -53 -59 -49 -64 3 -5
-4 -21 -15 -35 -12 -15 -21 -35 -21 -44 0 -10 -6 -33 -14 -51 -7 -19 -11 -40
-8 -48 2 -8 0 -11 -6 -7 -10 6 -23 -16 -21 -37 0 -7 4 -3 8 8 5 12 8 -2 8 -40
1 -70 19 -116 65 -166 33 -37 88 -73 73 -49 -4 7 5 4 21 -6 40 -27 200 -27
242 -1 6 5 17 5 24 1 7 -4 8 -3 4 4 -5 8 2 12 19 12 14 0 33 9 42 19 9 11 21
17 26 14 6 -3 7 -1 3 5 -4 7 -3 12 2 12 4 0 17 8 28 18 10 10 27 21 37 25 9 3
17 14 17 22 0 9 5 13 10 10 6 -4 10 -3 9 2 -4 15 13 43 22 37 5 -3 9 -2 8 3
-3 19 2 27 10 14 6 -10 11 -4 16 20 4 19 17 50 28 69 12 19 20 43 19 54 -2 11
1 16 7 12 6 -4 11 1 12 11 0 10 2 25 4 33 2 8 8 31 13 50 5 20 5 64 1 100 -4
36 -5 68 -3 72 3 5 0 8 -6 8 -6 0 -8 5 -5 10 3 6 2 10 -3 10 -6 0 -13 11 -16
24 -7 28 -52 74 -98 99 -18 9 -26 17 -18 17 13 0 13 1 0 10 -10 7 -11 10 -2
11 6 1 17 3 22 4 6 1 17 3 24 4 27 2 75 64 82 105 4 26 3 41 -5 44 -6 2 -11
10 -11 18 0 8 -4 14 -10 14 -5 0 -10 7 -10 16 0 8 -5 12 -10 9 -16 -10 -51 5
-43 18 5 9 3 9 -8 1 -8 -6 -51 -12 -96 -13 -80 -3 -82 -2 -100 26 -40 61 -61
73 -132 72 -36 0 -78 -5 -94 -11z m153 -25 c32 -22 40 -33 40 -60 0 -23 2 -23
123 -23 110 0 126 -2 145 -20 33 -31 38 -67 15 -98 -37 -50 -64 -57 -252 -60
l-174 -3 -49 -52 c-57 -61 -201 -250 -244 -322 -40 -65 -78 -148 -98 -210 -14
-41 -15 -65 -7 -135 8 -68 7 -89 -4 -106 -19 -29 -47 -34 -85 -16 -90 43 -94
246 -10 454 40 99 141 286 195 363 l43 60 -24 20 c-13 11 -24 30 -24 41 0 25
23 34 87 34 33 0 43 4 48 20 14 44 162 129 225 130 14 0 37 -8 50 -17z m232
-342 c84 -40 119 -93 126 -192 18 -248 -186 -519 -411 -545 -119 -14 -234 34
-272 112 -39 81 -13 236 58 349 39 62 84 113 106 120 9 3 24 27 34 53 20 57
56 97 112 124 59 28 163 19 247 -21z m-962 25 c0 -2 -7 -9 -15 -16 -13 -11
-14 -10 -9 4 5 14 24 23 24 12z m141 -25 c16 -16 29 -38 29 -48 0 -22 -45 -93
-90 -143 -73 -80 -181 -270 -205 -362 -10 -42 -10 -54 7 -100 10 -29 21 -61
25 -70 7 -24 -36 -42 -81 -34 -41 8 -104 74 -113 119 -3 15 -7 27 -9 27 -1 0
-25 -22 -52 -48 -57 -56 -116 -78 -188 -69 -85 9 -123 56 -132 163 -17 215
120 429 347 542 68 34 82 37 157 37 69 0 87 -3 112 -22 l30 -22 32 29 c43 41
91 41 131 1z m59 -106 c0 -8 -2 -15 -4 -15 -2 0 -6 7 -10 15 -3 8 -1 15 4 15
6 0 10 -7 10 -15z"/>
<path d="M4867 1475 c-4 -8 -3 -16 1 -19 4 -3 9 4 9 15 2 23 -3 25 -10 4z"/>
<path d="M5418 1562 c-10 -2 -18 -8 -18 -13 0 -5 0 -12 0 -16 0 -4 7 -8 17 -9
27 -4 51 -40 47 -71 -4 -37 -42 -68 -104 -84 -46 -12 -54 -18 -89 -73 -85
-135 -106 -202 -76 -236 22 -24 83 -27 123 -6 52 28 133 134 186 245 57 120
37 246 -40 261 -16 3 -37 4 -46 2z m71 -56 c-3 -3 -11 5 -18 17 -13 21 -12 21
5 5 10 -10 16 -20 13 -22z m13 -38 c-7 -7 -12 -8 -12 -2 0 14 12 26 19 19 2
-3 -1 -11 -7 -17z m2 -58 c-2 -39 -23 -110 -35 -120 -3 -3 -23 -35 -45 -72
-21 -38 -44 -68 -51 -68 -7 0 -13 -5 -13 -11 0 -5 -5 -7 -12 -3 -7 5 -9 2 -5
-9 7 -19 -5 -29 -60 -50 -36 -14 -43 -14 -53 -2 -16 20 -20 77 -4 71 7 -3 10
2 7 15 -3 11 5 33 19 52 13 17 32 49 43 70 11 20 25 37 32 37 7 0 13 5 13 10
0 6 5 10 11 10 5 0 8 -4 5 -9 -4 -5 3 -7 14 -4 11 3 17 10 13 16 -4 6 2 8 15
5 12 -4 20 -3 18 1 -3 4 8 12 23 19 16 7 33 26 41 47 18 46 28 44 24 -5z"/>
<path d="M5380 1439 c0 -5 5 -7 10 -4 6 3 10 8 10 11 0 2 -4 4 -10 4 -5 0 -10
-5 -10 -11z"/>
<path d="M5180 1401 c0 -6 4 -13 10 -16 6 -3 7 1 4 9 -7 18 -14 21 -14 7z"/>
<path d="M5105 1329 c-4 -6 -5 -12 -2 -15 2 -3 7 2 10 11 7 17 1 20 -8 4z"/>
<path d="M4441 1518 c-56 -16 -148 -85 -201 -151 -66 -82 -129 -208 -137 -273
-5 -48 -4 -53 20 -69 24 -15 28 -15 62 1 54 25 130 116 156 188 28 75 98 218
133 269 14 21 26 40 26 42 0 7 -20 5 -59 -7z m-13 -45 c-17 -19 -33 -62 -30
-76 1 -5 -2 -6 -7 -3 -7 5 -22 -26 -18 -37 0 -1 -12 -24 -27 -52 -16 -27 -28
-50 -26 -50 1 0 -3 -13 -9 -28 -6 -16 -11 -33 -11 -40 0 -6 -12 -22 -27 -34
-14 -13 -23 -23 -20 -23 11 0 -50 -62 -74 -74 -33 -17 -52 -10 -39 14 6 11 8
35 6 54 -2 19 -1 36 3 38 4 2 14 21 22 43 9 22 21 39 28 37 7 -1 11 3 10 10
-3 20 12 49 22 42 5 -3 6 3 2 12 -4 12 -3 15 5 10 7 -4 12 -2 12 6 0 16 93
118 107 118 6 0 13 7 17 15 3 9 12 12 22 8 11 -4 15 -3 11 5 -4 6 1 13 10 15
10 3 20 5 22 6 2 0 -3 -7 -11 -16z m-291 -385 c-3 -8 -6 -5 -6 6 -1 11 2 17 5
13 3 -3 4 -12 1 -19z"/>
<path d="M5468 1943 c17 -2 47 -2 65 0 17 2 3 4 -33 4 -36 0 -50 -2 -32 -4z"/>
<path d="M5249 1663 c-13 -16 -12 -17 4 -4 16 13 21 21 13 21 -2 0 -10 -8 -17
-17z"/>
<path d="M1197 1663 c-10 -10 -8 -25 2 -19 5 4 11 1 13 -5 2 -7 10 -4 18 7 11
13 12 16 1 10 -8 -5 -16 -4 -20 3 -4 6 -10 8 -14 4z"/>
<path d="M1175 1620 c-3 -6 1 -7 9 -4 18 7 21 14 7 14 -6 0 -13 -4 -16 -10z"/>
<path d="M3318 1443 c7 -3 16 -2 19 1 4 3 -2 6 -13 5 -11 0 -14 -3 -6 -6z"/>
<path d="M5035 1420 c-3 -5 -1 -10 4 -10 6 0 11 5 11 10 0 6 -2 10 -4 10 -3 0
-8 -4 -11 -10z"/>
<path d="M4296 730 c-21 -4 -41 -13 -46 -19 -4 -7 -8 -50 -8 -97 -1 -76 1 -85
21 -98 15 -10 39 -13 72 -10 57 5 51 5 127 0 56 -4 58 -3 78 29 22 36 19 92
-6 102 -8 3 -14 9 -14 15 0 5 5 6 10 3 6 -3 10 0 11 7 0 7 4 4 9 -7 6 -14 9
-16 11 -5 1 8 5 -7 9 -35 4 -28 3 -53 -2 -56 -6 -3 -3 -9 6 -12 9 -4 16 -13
16 -21 0 -7 8 -17 17 -21 30 -11 53 29 53 91 0 72 24 75 27 4 4 -69 32 -98 95
-96 25 1 44 4 42 8 -2 4 5 10 17 13 12 4 24 2 28 -4 9 -14 67 -31 76 -23 4 4
12 7 18 8 7 0 20 2 30 2 9 1 16 5 16 10 -3 20 3 21 22 4 17 -17 25 -18 49 -9
16 6 26 16 23 21 -4 6 5 2 18 -10 16 -14 35 -20 59 -19 46 3 43 2 69 26 19 18
22 30 20 87 -2 65 -15 106 -30 96 -4 -2 -10 0 -14 6 -8 13 -82 13 -90 -1 -4
-6 -14 -8 -22 -5 -8 3 -11 1 -8 -4 10 -16 -11 -12 -25 5 -18 21 -41 19 -47 -6
-6 -20 -6 -20 -29 2 -13 12 -24 20 -24 16 0 -4 -11 -2 -25 3 -26 10 -85 -5
-85 -22 0 -5 -5 -6 -10 -3 -6 4 -8 10 -5 15 3 4 -4 10 -14 13 -20 5 -53 -23
-64 -53 -3 -8 -6 -3 -6 13 -1 16 -5 26 -11 22 -5 -3 -10 -1 -10 4 0 14 -37 14
-46 0 -5 -8 -8 -8 -13 0 -10 16 -126 18 -144 3 -8 -7 -17 -9 -19 -4 -1 5 -22
12 -46 16 -33 5 -42 3 -36 -5 5 -8 2 -10 -9 -6 -9 3 -18 -1 -21 -10 -6 -14 -8
-14 -24 -1 -24 22 -51 27 -96 18z m82 -38 c2 -8 -10 -12 -37 -12 -37 0 -41 -2
-41 -26 0 -23 3 -25 32 -22 19 2 33 -2 35 -9 3 -9 -7 -13 -30 -13 -29 0 -35
-4 -39 -25 -7 -32 -3 -35 49 -35 24 0 43 -4 43 -10 0 -6 -27 -10 -60 -10 l-60
0 0 83 c0 46 2 86 4 88 10 10 100 2 104 -9z m302 2 c0 -5 -11 -10 -25 -12 -24
-3 -25 -6 -25 -78 0 -57 -3 -74 -14 -74 -12 0 -13 14 -9 75 l6 75 -32 0 c-27
0 -39 9 -27 21 9 8 126 2 126 -7z m62 -55 c2 -55 7 -74 21 -83 12 -8 22 -8 35
0 13 9 17 25 17 79 0 46 4 70 13 72 9 4 12 -15 12 -73 0 -61 -3 -79 -17 -90
-24 -18 -78 -18 -92 0 -11 14 -22 152 -12 161 14 15 20 -3 23 -66z m332 -22
c1 -64 -2 -87 -11 -87 -10 0 -13 25 -13 91 0 63 3 90 11 87 7 -2 12 -36 13
-91z m-544 70 c0 -10 -13 -13 -42 -13 -32 1 -43 -3 -46 -16 -2 -11 8 -20 35
-28 21 -7 41 -18 45 -24 14 -21 8 -55 -12 -66 -27 -14 -92 -9 -98 8 -3 9 6 11
35 6 29 -4 42 -2 53 10 16 20 7 30 -42 45 -41 13 -55 39 -38 71 9 16 21 20 60
20 35 0 50 -4 50 -13z m458 1 c7 -7 12 -39 12 -73 0 -34 -5 -66 -12 -73 -7 -7
-33 -12 -59 -12 l-47 0 0 85 1 85 46 0 c26 0 52 -5 59 -12z m241 -2 c7 -9 11
-39 9 -77 -3 -59 -5 -64 -30 -73 -18 -6 -38 -6 -55 0 -26 9 -28 14 -31 73 -2
38 2 68 9 77 15 18 83 18 98 0z m-439 -30 c0 -3 -4 -8 -10 -11 -5 -3 -10 -1
-10 4 0 6 5 11 10 11 6 0 10 -2 10 -4z m-391 -52 c-10 -12 -9 -13 4 -9 8 4 18
0 23 -7 4 -7 4 -10 -1 -6 -4 4 -14 0 -21 -10 -8 -10 -13 -12 -14 -4 0 6 -7 12
-17 12 -13 0 -12 3 5 19 12 10 18 22 14 26 -4 5 -1 5 6 1 10 -6 10 -11 1 -22z"/>
<path d="M4910 616 c0 -63 1 -66 24 -66 35 0 48 22 44 77 -3 46 -4 48 -35 51
l-33 3 0 -65z"/>
<path d="M5151 666 c-7 -8 -11 -34 -9 -57 3 -49 27 -71 56 -53 21 13 29 89 11
110 -15 18 -43 18 -58 0z m34 -35 c3 -5 1 -12 -5 -16 -5 -3 -10 1 -10 9 0 18
6 21 15 7z"/>
<path d="M5385 730 c-41 -16 -47 -38 -45 -171 0 -26 41 -80 47 -63 2 6 19 8
39 6 27 -3 42 1 62 19 15 13 24 20 20 15 -22 -27 99 -46 145 -24 20 10 20 67
0 75 -7 3 -10 9 -7 14 3 5 10 7 15 4 5 -4 9 1 9 9 0 9 -4 16 -9 16 -18 0 -19
28 -2 46 17 18 17 20 -2 37 -22 19 -25 20 -82 17 -24 -1 -45 -8 -52 -18 -8
-10 -13 -11 -13 -3 0 7 -5 9 -11 5 -6 -3 -14 -2 -18 5 -9 14 -70 21 -96 11z
m93 -43 c16 -12 16 -129 0 -145 -7 -7 -34 -12 -60 -12 l-48 0 0 89 0 89 48 -6
c26 -2 53 -9 60 -15z m170 4 c2 -7 -13 -11 -42 -11 -43 0 -46 -2 -46 -26 0
-23 3 -25 37 -22 22 2 38 -2 41 -10 2 -8 -9 -12 -37 -12 -39 0 -41 -2 -41 -30
0 -29 2 -30 45 -30 25 0 45 -4 45 -10 0 -5 -25 -10 -55 -10 l-55 0 0 88 0 87
52 -1 c29 -1 54 -7 56 -13z"/>
<path d="M5395 615 c0 -64 0 -65 26 -65 38 0 51 21 47 77 -3 47 -4 48 -38 51
l-35 3 0 -66z"/>
<path d="M3825 443 c-11 -2 -30 -9 -43 -15 -17 -9 -25 -9 -34 0 -28 28 -128 6
-128 -28 0 -12 -7 -20 -16 -20 -10 0 -14 6 -11 15 4 8 1 17 -5 21 -7 5 -8 2
-3 -7 4 -8 -2 -4 -14 9 -12 12 -25 22 -29 22 -20 0 -52 -34 -52 -55 0 -13 -5
-27 -11 -31 -8 -4 -9 1 -5 17 6 21 5 22 -4 6 -9 -14 -9 -22 0 -33 10 -11 9
-14 -6 -14 -16 0 -17 -2 -4 -10 12 -7 12 -10 1 -10 -7 0 -11 -6 -8 -14 3 -7 1
-18 -5 -24 -15 -15 -1 -48 28 -61 15 -6 29 -9 32 -6 3 3 0 5 -7 5 -7 0 -9 5
-6 10 4 6 11 7 17 4 7 -5 8 -2 3 6 -6 10 -4 12 8 7 12 -4 14 -2 10 10 -5 13
-3 14 17 3 12 -7 25 -21 27 -31 6 -23 29 -25 37 -4 3 8 11 15 18 15 9 0 9 -3
-2 -10 -11 -7 -8 -8 12 -6 15 1 38 11 50 22 18 16 21 17 15 2 -4 -12 -2 -15 9
-11 7 3 14 1 14 -5 0 -13 51 -2 56 13 3 6 0 23 -5 38 -7 18 -7 36 0 57 17 46
29 36 29 -24 0 -44 5 -60 24 -80 22 -25 24 -25 40 -7 12 13 17 37 18 81 1 37
4 56 9 48 7 -11 9 -10 9 1 0 8 3 11 7 7 13 -13 11 -76 -3 -87 -8 -6 -14 -16
-14 -22 0 -6 7 -2 16 9 10 12 14 14 11 4 -6 -25 26 -48 75 -51 25 -2 44 -1 42
2 -8 13 40 18 60 6 42 -23 108 -1 131 44 12 23 12 30 -4 60 -17 31 -17 36 -3
58 15 22 15 25 -7 42 -28 23 -93 25 -114 5 -12 -12 -17 -13 -33 -1 -24 16 -80
21 -118 10 -19 -5 -36 -4 -47 4 -19 11 -46 13 -84 4z m93 -42 c2 -6 -8 -11
-22 -11 -24 0 -25 -2 -28 -75 -4 -100 -22 -102 -26 -2 -3 74 -4 77 -27 77 -23
0 -32 10 -21 21 9 9 120 1 124 -10z m-358 -8 c0 -10 13 -48 29 -85 26 -61 27
-68 11 -68 -10 0 -20 9 -23 20 -4 15 -14 20 -41 20 -24 0 -36 -5 -36 -14 0
-15 -24 -39 -32 -31 -3 3 9 44 26 90 23 62 36 85 49 85 9 0 17 -8 17 -17z
m190 -2 c13 -26 13 -57 -2 -80 -9 -15 -8 -24 5 -45 21 -32 21 -35 -1 -29 -10
2 -24 17 -31 34 -8 18 -20 29 -33 29 -17 0 -20 -5 -16 -30 3 -20 0 -30 -8 -30
-9 0 -13 25 -16 85 l-3 85 47 0 c37 0 50 -4 58 -19z m315 9 c-3 -5 -24 -10
-46 -10 -35 0 -39 -3 -39 -25 0 -22 4 -25 35 -25 19 0 35 -4 35 -10 0 -5 -16
-10 -35 -10 -32 0 -35 -2 -35 -30 0 -29 2 -30 45 -30 25 0 45 -4 45 -10 0 -6
-27 -10 -60 -10 l-60 0 0 85 0 85 61 0 c37 0 58 -4 54 -10z m152 -2 c-2 -8
-17 -12 -36 -10 -40 4 -67 -14 -50 -34 6 -8 19 -14 28 -14 26 0 61 -29 61 -50
0 -31 -28 -50 -76 -50 -32 0 -44 4 -44 14 0 11 11 14 43 13 35 -2 42 1 42 17
0 13 -10 23 -30 29 -16 5 -36 14 -42 20 -16 12 -17 49 -1 65 17 17 111 16 105
0z m-600 -34 c-3 -3 -12 -4 -19 -1 -8 3 -5 6 6 6 11 1 17 -2 13 -5z m487 -65
c-10 -16 -24 -9 -18 9 5 14 4 14 -4 2 -8 -10 -7 -19 1 -29 10 -12 9 -13 -11
-2 -23 12 -23 13 -6 32 13 14 20 16 30 8 8 -6 11 -15 8 -20z"/>
<path d="M3523 335 c-11 -34 -10 -35 14 -35 22 0 24 3 18 28 -10 43 -21 45
-32 7z"/>
<path d="M3670 355 c0 -32 2 -35 30 -35 28 0 30 3 30 35 0 32 -2 35 -30 35
-28 0 -30 -3 -30 -35z"/>
<path d="M4322 428 c-19 -19 -16 -185 4 -205 20 -20 45 -7 55 28 4 13 7 18 8
12 1 -17 33 -17 50 0 11 9 12 9 7 0 -4 -7 3 -24 17 -38 21 -23 25 -24 36 -11
7 9 17 13 22 10 5 -3 9 3 9 12 0 15 4 14 25 -6 14 -13 25 -19 25 -14 0 5 4 3
9 -4 7 -11 16 -10 49 7 47 24 56 26 46 9 -4 -7 -3 -8 5 -4 6 4 23 0 37 -9 22
-14 30 -15 57 -4 18 7 36 19 40 26 6 10 13 9 29 -7 27 -25 33 -25 51 0 13 19
14 19 33 1 21 -19 80 -38 70 -23 -3 5 8 8 25 6 18 -2 28 0 24 6 -3 6 -1 10 5
10 6 0 13 -7 16 -15 8 -19 24 -20 24 -1 0 7 13 19 29 26 26 10 32 9 49 -8 11
-11 17 -24 14 -28 -4 -5 4 -1 17 7 21 13 30 14 64 2 33 -12 42 -12 48 -1 6 9
9 9 9 1 0 -6 9 -9 20 -6 11 3 17 9 14 14 -3 5 0 9 5 9 6 0 11 -4 11 -9 0 -5 9
-11 20 -14 11 -3 20 0 20 6 0 8 3 8 8 2 10 -15 56 -12 75 4 12 9 17 10 17 2 0
-8 8 -10 20 -6 11 3 20 2 20 -2 0 -12 71 -4 87 9 7 6 10 14 7 19 -3 5 1 12 10
15 17 7 12 47 -10 82 -14 22 -14 25 2 36 10 7 19 21 20 31 1 9 0 14 -3 11 -4
-3 -15 1 -24 10 -14 13 -28 15 -61 9 -47 -8 -57 -8 -138 1 -74 7 -92 -11 -94
-94 -1 -50 -4 -58 -18 -54 -20 5 -26 27 -24 79 2 30 -3 43 -21 56 -19 15 -26
15 -43 5 -12 -8 -19 -20 -16 -30 2 -10 0 -18 -6 -18 -6 0 -8 -9 -5 -20 3 -11
2 -22 -2 -24 -4 -3 -8 5 -8 16 -1 12 -7 24 -14 28 -8 6 -8 9 2 13 11 4 11 6 1
6 -7 1 -10 6 -6 13 4 7 3 8 -5 4 -6 -4 -14 0 -17 8 -3 9 -12 16 -19 16 -18 0
-66 -40 -60 -50 7 -11 -21 -61 -29 -52 -4 4 -7 3 -5 -3 1 -5 -3 -21 -9 -35 -6
-14 -11 -20 -11 -14 -1 6 -13 11 -28 10 -24 -1 -29 4 -31 28 -2 18 0 26 7 21
6 -3 11 1 11 11 0 14 3 15 12 6 7 -7 15 -12 19 -12 13 0 39 31 39 45 0 43 -93
62 -128 27 -18 -18 -19 -18 -36 2 -14 17 -19 19 -36 8 -16 -9 -29 -9 -65 0
-36 10 -52 9 -80 -1 -27 -10 -39 -10 -50 -1 -10 9 -20 7 -39 -5 -14 -10 -23
-21 -20 -26 3 -5 -2 -9 -10 -9 -10 0 -13 6 -10 15 8 20 -34 36 -59 23 -12 -6
-23 -5 -33 3 -11 9 -21 8 -47 -5 -17 -8 -26 -16 -19 -16 10 0 9 -4 -3 -16 -14
-15 -18 -13 -47 15 -35 34 -48 37 -66 19z m67 -69 c13 -27 27 -49 30 -49 3 1
17 23 30 50 40 82 52 74 49 -33 -2 -57 -7 -90 -13 -87 -6 3 -9 32 -7 65 3 64
0 65 -27 13 -26 -47 -43 -46 -68 4 l-22 43 0 -68 c-1 -50 -4 -68 -13 -65 -13
5 -24 147 -14 174 9 23 30 5 55 -47z m183 -18 c3 -71 22 -96 56 -75 13 9 17
25 17 78 0 36 3 66 8 66 4 0 10 0 15 0 11 0 2 -143 -10 -157 -14 -18 -83 -16
-98 2 -12 14 -22 142 -13 158 11 20 22 -12 25 -72z m318 -21 c0 -72 -3 -88
-14 -84 -11 4 -13 25 -11 92 3 100 2 95 15 87 6 -3 10 -46 10 -95z m390 20 l0
-80 40 0 c22 0 40 -4 40 -10 0 -5 -24 -10 -52 -10 l-53 0 2 87 c1 49 2 89 3
91 0 1 5 2 10 2 6 0 10 -33 10 -80z m-460 57 c0 -10 -13 -13 -42 -13 -62 1
-63 -25 -3 -48 38 -15 45 -22 45 -45 0 -15 -5 -32 -12 -39 -17 -17 -111 -16
-105 1 2 6 15 11 28 9 36 -4 69 7 69 22 0 8 -20 22 -44 31 -49 19 -61 43 -39
74 11 16 25 21 59 21 30 0 44 -4 44 -13z m230 0 c0 -10 -13 -13 -42 -13 l-43
1 0 -60 0 -60 43 2 c31 1 42 -2 42 -13 0 -21 -83 -19 -101 2 -16 20 -14 121 2
141 15 18 99 18 99 0z m141 -72 c16 -44 29 -81 29 -82 0 -2 -6 -3 -14 -3 -7 0
-16 9 -19 20 -7 29 -72 29 -80 0 -3 -11 -12 -20 -20 -20 -11 0 -8 18 17 85 20
57 35 85 44 83 8 -2 27 -39 43 -83z m309 75 c0 -5 -20 -10 -45 -10 -41 0 -45
-2 -45 -25 0 -22 4 -25 40 -25 22 0 40 -4 40 -10 0 -5 -18 -10 -40 -10 -38 0
-40 -2 -40 -30 0 -29 2 -30 45 -30 25 0 45 -4 45 -10 0 -6 -26 -10 -57 -10
l-58 0 0 85 0 85 58 0 c31 0 57 -4 57 -10z m147 -2 c-2 -8 -17 -12 -36 -10
-64 7 -75 -37 -13 -53 52 -13 68 -48 36 -79 -21 -21 -104 -22 -104 -2 0 11 11
14 43 13 35 -2 42 1 42 17 0 13 -10 23 -30 29 -16 5 -36 14 -42 20 -16 12 -17
49 -1 65 17 17 111 16 105 0z m-814 -42 c4 -10 0 -12 -15 -8 -15 4 -17 7 -6
13 17 11 15 11 21 -5z m-215 -29 c5 -24 -15 -21 -21 4 -3 13 -1 19 6 16 7 -2
13 -11 15 -20z m106 -36 c-2 -3 -12 3 -22 13 -16 17 -16 18 5 5 12 -7 20 -15
17 -18z m806 4 c-15 -18 -24 -20 -14 -3 5 8 2 9 -9 5 -10 -3 -17 -2 -17 3 0 6
12 10 26 10 22 0 25 -2 14 -15z"/>
<path d="M5133 335 c-11 -33 -10 -35 13 -35 21 0 24 3 18 28 -10 43 -20 45
-31 7z"/>
<path d="M5077 383 c-4 -3 -7 -11 -7 -17 0 -6 5 -5 12 2 6 6 9 14 7 17 -3 3
-9 2 -12 -2z"/>
<path d="M4990 320 c0 -5 5 -10 11 -10 5 0 7 5 4 10 -3 6 -8 10 -11 10 -2 0
-4 -4 -4 -10z"/>
</g>
</svg>
